<mxfile host="Electron" modified="2024-07-29T05:14:11.882Z" agent="Mozilla/5.0 (Windows NT 10.0; Win64; x64) AppleWebKit/537.36 (KHTML, like Gecko) draw.io/22.0.2 Chrome/114.0.5735.289 Electron/25.8.4 Safari/537.36" etag="OPUvpNQ6fWu3UmYzhLie" version="22.0.2" type="device">
  <diagram name="Page-1" id="F0XwoyQ3lqNc3LvD0mNE">
    <mxGraphModel dx="1418" dy="820" grid="1" gridSize="10" guides="1" tooltips="1" connect="1" arrows="1" fold="1" page="1" pageScale="1" pageWidth="850" pageHeight="1100" math="0" shadow="0">
      <root>
        <mxCell id="0" />
        <mxCell id="1" parent="0" />
        <mxCell id="ezjrpOh8rxdaCEZ-qCzv-7" value="" style="rounded=0;whiteSpace=wrap;html=1;fillColor=none;dashed=1;" parent="1" vertex="1">
          <mxGeometry x="370" y="160" width="790" height="480" as="geometry" />
        </mxCell>
        <mxCell id="ezjrpOh8rxdaCEZ-qCzv-6" value="" style="rounded=0;whiteSpace=wrap;html=1;fillColor=none;dashed=1;" parent="1" vertex="1">
          <mxGeometry x="220" y="680" width="510" height="420" as="geometry" />
        </mxCell>
        <mxCell id="DhWCyM13J9A1nExANPJX-4" value="BioTuring Server" style="image;points=[];aspect=fixed;html=1;align=center;shadow=0;dashed=0;image=img/lib/allied_telesis/storage/Datacenter_Server_Rack.svg;fontFamily=Comic Sans MS;" parent="1" vertex="1">
          <mxGeometry x="510" y="245.1" width="73.99" height="150" as="geometry" />
        </mxCell>
        <mxCell id="DhWCyM13J9A1nExANPJX-28" value="Task Queue" style="rounded=0;whiteSpace=wrap;html=1;verticalAlign=top;fillColor=none;labelPosition=center;verticalLabelPosition=bottom;align=center;fontFamily=Comic Sans MS;" parent="1" vertex="1">
          <mxGeometry x="881" y="179.99999999999997" width="213.75" height="50" as="geometry" />
        </mxCell>
        <mxCell id="DhWCyM13J9A1nExANPJX-26" value="" style="sketch=0;aspect=fixed;pointerEvents=1;shadow=0;dashed=0;html=1;strokeColor=none;labelPosition=center;verticalLabelPosition=bottom;verticalAlign=top;align=center;shape=mxgraph.azure.startup_task;fillColor=#0078D7;fontFamily=Comic Sans MS;" parent="1" vertex="1">
          <mxGeometry x="894.75" y="185.34" width="37.74" height="39.32" as="geometry" />
        </mxCell>
        <mxCell id="DhWCyM13J9A1nExANPJX-30" value="" style="sketch=0;aspect=fixed;pointerEvents=1;shadow=0;dashed=0;html=1;strokeColor=none;labelPosition=center;verticalLabelPosition=bottom;verticalAlign=top;align=center;shape=mxgraph.azure.startup_task;fillColor=#0078D7;fontFamily=Comic Sans MS;" parent="1" vertex="1">
          <mxGeometry x="944.75" y="185.34" width="37.74" height="39.32" as="geometry" />
        </mxCell>
        <mxCell id="DhWCyM13J9A1nExANPJX-31" value="" style="sketch=0;aspect=fixed;pointerEvents=1;shadow=0;dashed=0;html=1;strokeColor=none;labelPosition=center;verticalLabelPosition=bottom;verticalAlign=top;align=center;shape=mxgraph.azure.startup_task;fillColor=#0078D7;fontFamily=Comic Sans MS;" parent="1" vertex="1">
          <mxGeometry x="994.75" y="185.34" width="37.74" height="39.32" as="geometry" />
        </mxCell>
        <mxCell id="DhWCyM13J9A1nExANPJX-32" value="" style="sketch=0;aspect=fixed;pointerEvents=1;shadow=0;dashed=0;html=1;strokeColor=none;labelPosition=center;verticalLabelPosition=bottom;verticalAlign=top;align=center;shape=mxgraph.azure.startup_task;fillColor=#0078D7;fontFamily=Comic Sans MS;" parent="1" vertex="1">
          <mxGeometry x="1044.75" y="185.34" width="37.74" height="39.32" as="geometry" />
        </mxCell>
        <mxCell id="DhWCyM13J9A1nExANPJX-40" value="BBrowser API" style="sketch=0;html=1;dashed=0;whitespace=wrap;fillColor=#2875E2;strokeColor=#ffffff;points=[[0.005,0.63,0],[0.1,0.2,0],[0.9,0.2,0],[0.5,0,0],[0.995,0.63,0],[0.72,0.99,0],[0.5,1,0],[0.28,0.99,0]];verticalLabelPosition=bottom;align=center;verticalAlign=top;shape=mxgraph.kubernetes.icon;prIcon=api;fontFamily=Comic Sans MS;" parent="1" vertex="1">
          <mxGeometry x="395" y="288" width="51.13" height="49.06" as="geometry" />
        </mxCell>
        <mxCell id="DhWCyM13J9A1nExANPJX-43" style="edgeStyle=orthogonalEdgeStyle;rounded=0;orthogonalLoop=1;jettySize=auto;html=1;exitX=0.995;exitY=0.63;exitDx=0;exitDy=0;exitPerimeter=0;entryX=-0.042;entryY=0.492;entryDx=0;entryDy=0;entryPerimeter=0;startArrow=classic;startFill=1;fontFamily=Comic Sans MS;" parent="1" source="DhWCyM13J9A1nExANPJX-40" target="DhWCyM13J9A1nExANPJX-4" edge="1">
          <mxGeometry relative="1" as="geometry" />
        </mxCell>
        <mxCell id="DhWCyM13J9A1nExANPJX-44" value="Task Handler" style="verticalLabelPosition=bottom;html=1;verticalAlign=top;align=center;strokeColor=none;fillColor=#00BEF2;shape=mxgraph.azure.worker_role;fontFamily=Comic Sans MS;" parent="1" vertex="1">
          <mxGeometry x="962.88" y="293.53" width="50" height="40" as="geometry" />
        </mxCell>
        <mxCell id="ezjrpOh8rxdaCEZ-qCzv-15" style="edgeStyle=orthogonalEdgeStyle;rounded=0;orthogonalLoop=1;jettySize=auto;html=1;entryX=0.5;entryY=0;entryDx=0;entryDy=0;" parent="1" source="DhWCyM13J9A1nExANPJX-45" target="ezjrpOh8rxdaCEZ-qCzv-11" edge="1">
          <mxGeometry relative="1" as="geometry" />
        </mxCell>
        <mxCell id="eEtruf8sgbnakv5GVl6a-6" style="rounded=0;orthogonalLoop=1;jettySize=auto;html=1;exitX=0.5;exitY=1;exitDx=0;exitDy=0;exitPerimeter=0;entryX=0.5;entryY=0;entryDx=0;entryDy=0;" edge="1" parent="1" source="DhWCyM13J9A1nExANPJX-45" target="ezjrpOh8rxdaCEZ-qCzv-8">
          <mxGeometry relative="1" as="geometry" />
        </mxCell>
        <mxCell id="eEtruf8sgbnakv5GVl6a-7" style="rounded=0;orthogonalLoop=1;jettySize=auto;html=1;exitX=0.5;exitY=1;exitDx=0;exitDy=0;exitPerimeter=0;entryX=0.5;entryY=0;entryDx=0;entryDy=0;" edge="1" parent="1" source="DhWCyM13J9A1nExANPJX-45" target="yGBrbMYSdcOdV5CkmFFq-3">
          <mxGeometry relative="1" as="geometry" />
        </mxCell>
        <mxCell id="DhWCyM13J9A1nExANPJX-45" value="Process" style="verticalLabelPosition=bottom;html=1;verticalAlign=top;align=center;strokeColor=none;fillColor=#00BEF2;shape=mxgraph.azure.worker_role;fontFamily=Comic Sans MS;" parent="1" vertex="1">
          <mxGeometry x="1071" y="395.99999999999994" width="50" height="40" as="geometry" />
        </mxCell>
        <mxCell id="ezjrpOh8rxdaCEZ-qCzv-14" style="edgeStyle=orthogonalEdgeStyle;rounded=0;orthogonalLoop=1;jettySize=auto;html=1;exitX=0.5;exitY=1;exitDx=0;exitDy=0;exitPerimeter=0;entryX=0.5;entryY=0;entryDx=0;entryDy=0;" parent="1" source="DhWCyM13J9A1nExANPJX-46" target="ezjrpOh8rxdaCEZ-qCzv-8" edge="1">
          <mxGeometry relative="1" as="geometry" />
        </mxCell>
        <mxCell id="eEtruf8sgbnakv5GVl6a-4" style="rounded=0;orthogonalLoop=1;jettySize=auto;html=1;exitX=0.5;exitY=1;exitDx=0;exitDy=0;exitPerimeter=0;entryX=0.5;entryY=0;entryDx=0;entryDy=0;" edge="1" parent="1" source="DhWCyM13J9A1nExANPJX-46" target="yGBrbMYSdcOdV5CkmFFq-3">
          <mxGeometry relative="1" as="geometry" />
        </mxCell>
        <mxCell id="eEtruf8sgbnakv5GVl6a-5" style="rounded=0;orthogonalLoop=1;jettySize=auto;html=1;exitX=0.5;exitY=1;exitDx=0;exitDy=0;exitPerimeter=0;entryX=0.5;entryY=0;entryDx=0;entryDy=0;" edge="1" parent="1" source="DhWCyM13J9A1nExANPJX-46" target="ezjrpOh8rxdaCEZ-qCzv-11">
          <mxGeometry relative="1" as="geometry" />
        </mxCell>
        <mxCell id="DhWCyM13J9A1nExANPJX-46" value="Process" style="verticalLabelPosition=bottom;html=1;verticalAlign=top;align=center;strokeColor=none;fillColor=#00BEF2;shape=mxgraph.azure.worker_role;fontFamily=Comic Sans MS;" parent="1" vertex="1">
          <mxGeometry x="962.88" y="396" width="50" height="40" as="geometry" />
        </mxCell>
        <mxCell id="yGBrbMYSdcOdV5CkmFFq-14" style="edgeStyle=orthogonalEdgeStyle;rounded=0;orthogonalLoop=1;jettySize=auto;html=1;entryX=0.5;entryY=0;entryDx=0;entryDy=0;fontFamily=Comic Sans MS;" parent="1" source="DhWCyM13J9A1nExANPJX-49" target="yGBrbMYSdcOdV5CkmFFq-3" edge="1">
          <mxGeometry relative="1" as="geometry" />
        </mxCell>
        <mxCell id="eEtruf8sgbnakv5GVl6a-2" style="rounded=0;orthogonalLoop=1;jettySize=auto;html=1;exitX=0.5;exitY=1;exitDx=0;exitDy=0;exitPerimeter=0;entryX=0.5;entryY=0;entryDx=0;entryDy=0;" edge="1" parent="1" source="DhWCyM13J9A1nExANPJX-49" target="ezjrpOh8rxdaCEZ-qCzv-8">
          <mxGeometry relative="1" as="geometry" />
        </mxCell>
        <mxCell id="eEtruf8sgbnakv5GVl6a-3" style="rounded=0;orthogonalLoop=1;jettySize=auto;html=1;exitX=0.5;exitY=1;exitDx=0;exitDy=0;exitPerimeter=0;entryX=0.5;entryY=0;entryDx=0;entryDy=0;" edge="1" parent="1" source="DhWCyM13J9A1nExANPJX-49" target="ezjrpOh8rxdaCEZ-qCzv-11">
          <mxGeometry relative="1" as="geometry" />
        </mxCell>
        <mxCell id="DhWCyM13J9A1nExANPJX-49" value="Process" style="verticalLabelPosition=bottom;html=1;verticalAlign=top;align=center;strokeColor=none;fillColor=#00BEF2;shape=mxgraph.azure.worker_role;fontFamily=Comic Sans MS;" parent="1" vertex="1">
          <mxGeometry x="851" y="396" width="50" height="40" as="geometry" />
        </mxCell>
        <mxCell id="DhWCyM13J9A1nExANPJX-50" style="edgeStyle=orthogonalEdgeStyle;rounded=0;orthogonalLoop=1;jettySize=auto;html=1;exitX=0.5;exitY=1;exitDx=0;exitDy=0;entryX=0.5;entryY=0;entryDx=0;entryDy=0;entryPerimeter=0;startArrow=classic;startFill=1;fontFamily=Comic Sans MS;" parent="1" source="DhWCyM13J9A1nExANPJX-28" target="DhWCyM13J9A1nExANPJX-44" edge="1">
          <mxGeometry relative="1" as="geometry" />
        </mxCell>
        <mxCell id="DhWCyM13J9A1nExANPJX-51" style="rounded=0;orthogonalLoop=1;jettySize=auto;html=1;exitX=0.5;exitY=1;exitDx=0;exitDy=0;exitPerimeter=0;entryX=0.5;entryY=0;entryDx=0;entryDy=0;entryPerimeter=0;fontFamily=Comic Sans MS;" parent="1" source="DhWCyM13J9A1nExANPJX-44" target="DhWCyM13J9A1nExANPJX-49" edge="1">
          <mxGeometry relative="1" as="geometry" />
        </mxCell>
        <mxCell id="DhWCyM13J9A1nExANPJX-52" style="rounded=0;orthogonalLoop=1;jettySize=auto;html=1;exitX=0.5;exitY=1;exitDx=0;exitDy=0;exitPerimeter=0;entryX=0.5;entryY=0;entryDx=0;entryDy=0;entryPerimeter=0;fontFamily=Comic Sans MS;" parent="1" source="DhWCyM13J9A1nExANPJX-44" target="DhWCyM13J9A1nExANPJX-46" edge="1">
          <mxGeometry relative="1" as="geometry" />
        </mxCell>
        <mxCell id="DhWCyM13J9A1nExANPJX-53" style="rounded=0;orthogonalLoop=1;jettySize=auto;html=1;exitX=0.5;exitY=1;exitDx=0;exitDy=0;exitPerimeter=0;entryX=0.5;entryY=0;entryDx=0;entryDy=0;entryPerimeter=0;fontFamily=Comic Sans MS;" parent="1" source="DhWCyM13J9A1nExANPJX-44" target="DhWCyM13J9A1nExANPJX-45" edge="1">
          <mxGeometry relative="1" as="geometry" />
        </mxCell>
        <mxCell id="DhWCyM13J9A1nExANPJX-65" value="Task Scheduler API" style="sketch=0;html=1;dashed=0;whitespace=wrap;fillColor=#2875E2;strokeColor=#ffffff;points=[[0.005,0.63,0],[0.1,0.2,0],[0.9,0.2,0],[0.5,0,0],[0.995,0.63,0],[0.72,0.99,0],[0.5,1,0],[0.28,0.99,0]];verticalLabelPosition=bottom;align=center;verticalAlign=top;shape=mxgraph.kubernetes.icon;prIcon=api;fontFamily=Comic Sans MS;" parent="1" vertex="1">
          <mxGeometry x="721" y="289" width="51.13" height="49.06" as="geometry" />
        </mxCell>
        <mxCell id="DhWCyM13J9A1nExANPJX-67" style="edgeStyle=orthogonalEdgeStyle;rounded=0;orthogonalLoop=1;jettySize=auto;html=1;entryX=0.005;entryY=0.63;entryDx=0;entryDy=0;entryPerimeter=0;startArrow=classic;startFill=1;fontFamily=Comic Sans MS;" parent="1" source="DhWCyM13J9A1nExANPJX-4" target="DhWCyM13J9A1nExANPJX-65" edge="1">
          <mxGeometry relative="1" as="geometry" />
        </mxCell>
        <mxCell id="MhcaZoFoSHZdR4m9wgJC-86" value="BBrowser" style="verticalLabelPosition=bottom;html=1;verticalAlign=top;align=center;strokeColor=none;fillColor=#00BEF2;shape=mxgraph.azure.computer;pointerEvents=1;fontFamily=Comic Sans MS;" parent="1" vertex="1">
          <mxGeometry x="240.00000000000006" y="296.50000000000006" width="50" height="45" as="geometry" />
        </mxCell>
        <mxCell id="yGBrbMYSdcOdV5CkmFFq-2" value="Online mode" style="edgeStyle=orthogonalEdgeStyle;rounded=0;orthogonalLoop=1;jettySize=auto;html=1;exitX=1;exitY=0.5;exitDx=0;exitDy=0;exitPerimeter=0;entryX=0.005;entryY=0.63;entryDx=0;entryDy=0;entryPerimeter=0;startArrow=classic;startFill=1;fontFamily=Comic Sans MS;" parent="1" source="MhcaZoFoSHZdR4m9wgJC-86" target="DhWCyM13J9A1nExANPJX-40" edge="1">
          <mxGeometry relative="1" as="geometry" />
        </mxCell>
        <mxCell id="yGBrbMYSdcOdV5CkmFFq-3" value="Result Cache (User-specific)" style="rounded=0;whiteSpace=wrap;html=1;verticalAlign=top;fillColor=none;labelPosition=center;verticalLabelPosition=bottom;align=center;fontFamily=Comic Sans MS;" parent="1" vertex="1">
          <mxGeometry x="831" y="489" width="90" height="60" as="geometry" />
        </mxCell>
        <mxCell id="yGBrbMYSdcOdV5CkmFFq-8" value="" style="image;aspect=fixed;html=1;points=[];align=center;fontSize=12;image=img/lib/azure2/general/File.svg;fontFamily=Comic Sans MS;" parent="1" vertex="1">
          <mxGeometry x="840.2599999999999" y="500.5" width="31.65" height="39" as="geometry" />
        </mxCell>
        <mxCell id="yGBrbMYSdcOdV5CkmFFq-9" value="" style="image;aspect=fixed;html=1;points=[];align=center;fontSize=12;image=img/lib/azure2/general/File.svg;fontFamily=Comic Sans MS;" parent="1" vertex="1">
          <mxGeometry x="880.0899999999999" y="500.5" width="31.65" height="39" as="geometry" />
        </mxCell>
        <mxCell id="yGBrbMYSdcOdV5CkmFFq-27" value="BBrowser" style="verticalLabelPosition=bottom;html=1;verticalAlign=top;align=center;strokeColor=none;fillColor=#00BEF2;shape=mxgraph.azure.computer;pointerEvents=1;fontFamily=Comic Sans MS;" parent="1" vertex="1">
          <mxGeometry x="240.00000000000006" y="439.20000000000005" width="50" height="45" as="geometry" />
        </mxCell>
        <mxCell id="yGBrbMYSdcOdV5CkmFFq-28" style="rounded=0;orthogonalLoop=1;jettySize=auto;html=1;entryX=0.28;entryY=0.99;entryDx=0;entryDy=0;entryPerimeter=0;startArrow=classic;startFill=1;fontFamily=Comic Sans MS;" parent="1" source="yGBrbMYSdcOdV5CkmFFq-27" target="DhWCyM13J9A1nExANPJX-40" edge="1">
          <mxGeometry relative="1" as="geometry" />
        </mxCell>
        <mxCell id="yGBrbMYSdcOdV5CkmFFq-33" value="Online mode" style="edgeLabel;html=1;align=center;verticalAlign=middle;resizable=0;points=[];fontFamily=Comic Sans MS;" parent="yGBrbMYSdcOdV5CkmFFq-28" vertex="1" connectable="0">
          <mxGeometry x="-0.1181" y="-2" relative="1" as="geometry">
            <mxPoint as="offset" />
          </mxGeometry>
        </mxCell>
        <mxCell id="yGBrbMYSdcOdV5CkmFFq-31" value="BBrowser" style="verticalLabelPosition=bottom;html=1;verticalAlign=top;align=center;strokeColor=none;fillColor=#00BEF2;shape=mxgraph.azure.computer;pointerEvents=1;fontFamily=Comic Sans MS;" parent="1" vertex="1">
          <mxGeometry x="240.00000000000006" y="582.5" width="50" height="45" as="geometry" />
        </mxCell>
        <mxCell id="yGBrbMYSdcOdV5CkmFFq-32" style="edgeStyle=orthogonalEdgeStyle;rounded=0;orthogonalLoop=1;jettySize=auto;html=1;entryX=0.5;entryY=1;entryDx=0;entryDy=0;entryPerimeter=0;fontFamily=Comic Sans MS;startArrow=classic;startFill=1;" parent="1" source="yGBrbMYSdcOdV5CkmFFq-31" target="DhWCyM13J9A1nExANPJX-40" edge="1">
          <mxGeometry relative="1" as="geometry" />
        </mxCell>
        <mxCell id="yGBrbMYSdcOdV5CkmFFq-34" value="Online mode" style="edgeLabel;html=1;align=center;verticalAlign=middle;resizable=0;points=[];fontFamily=Comic Sans MS;" parent="yGBrbMYSdcOdV5CkmFFq-32" vertex="1" connectable="0">
          <mxGeometry x="0.2024" y="-2" relative="1" as="geometry">
            <mxPoint as="offset" />
          </mxGeometry>
        </mxCell>
        <mxCell id="yGBrbMYSdcOdV5CkmFFq-35" style="edgeStyle=orthogonalEdgeStyle;rounded=0;orthogonalLoop=1;jettySize=auto;html=1;entryX=0.5;entryY=1;entryDx=0;entryDy=0;entryPerimeter=0;fontFamily=Comic Sans MS;" parent="1" source="yGBrbMYSdcOdV5CkmFFq-3" target="DhWCyM13J9A1nExANPJX-65" edge="1">
          <mxGeometry relative="1" as="geometry" />
        </mxCell>
        <mxCell id="yGBrbMYSdcOdV5CkmFFq-37" style="edgeStyle=orthogonalEdgeStyle;rounded=0;orthogonalLoop=1;jettySize=auto;html=1;entryX=0.5;entryY=1;entryDx=0;entryDy=0;entryPerimeter=0;fontFamily=Comic Sans MS;exitX=0.5;exitY=1;exitDx=0;exitDy=0;" parent="1" source="ezjrpOh8rxdaCEZ-qCzv-11" target="DhWCyM13J9A1nExANPJX-65" edge="1">
          <mxGeometry relative="1" as="geometry">
            <Array as="points">
              <mxPoint x="1096" y="550" />
              <mxPoint x="1096" y="620" />
              <mxPoint x="747" y="620" />
            </Array>
            <mxPoint x="1095.9999999999998" y="620" as="sourcePoint" />
          </mxGeometry>
        </mxCell>
        <mxCell id="yGBrbMYSdcOdV5CkmFFq-38" style="edgeStyle=orthogonalEdgeStyle;rounded=0;orthogonalLoop=1;jettySize=auto;html=1;entryX=0.5;entryY=1;entryDx=0;entryDy=0;entryPerimeter=0;fontFamily=Comic Sans MS;exitX=0.5;exitY=1;exitDx=0;exitDy=0;" parent="1" source="ezjrpOh8rxdaCEZ-qCzv-8" target="DhWCyM13J9A1nExANPJX-65" edge="1">
          <mxGeometry relative="1" as="geometry">
            <Array as="points">
              <mxPoint x="988" y="600" />
              <mxPoint x="747" y="600" />
            </Array>
            <mxPoint x="988" y="580" as="sourcePoint" />
          </mxGeometry>
        </mxCell>
        <mxCell id="yGBrbMYSdcOdV5CkmFFq-44" value="BBrowser" style="verticalLabelPosition=bottom;html=1;verticalAlign=top;align=center;strokeColor=none;fillColor=#00BEF2;shape=mxgraph.azure.computer;pointerEvents=1;fontFamily=Comic Sans MS;" parent="1" vertex="1">
          <mxGeometry x="240.00000000000006" y="807.5" width="50" height="45" as="geometry" />
        </mxCell>
        <mxCell id="yGBrbMYSdcOdV5CkmFFq-71" style="edgeStyle=orthogonalEdgeStyle;rounded=0;orthogonalLoop=1;jettySize=auto;html=1;exitX=0.5;exitY=1;exitDx=0;exitDy=0;exitPerimeter=0;entryX=0;entryY=0.5;entryDx=0;entryDy=0;startArrow=classic;startFill=1;fontFamily=Comic Sans MS;" parent="1" source="yGBrbMYSdcOdV5CkmFFq-45" target="yGBrbMYSdcOdV5CkmFFq-63" edge="1">
          <mxGeometry relative="1" as="geometry" />
        </mxCell>
        <mxCell id="yGBrbMYSdcOdV5CkmFFq-45" value="Task Scheduler API" style="sketch=0;html=1;dashed=0;whitespace=wrap;fillColor=#2875E2;strokeColor=#ffffff;points=[[0.005,0.63,0],[0.1,0.2,0],[0.9,0.2,0],[0.5,0,0],[0.995,0.63,0],[0.72,0.99,0],[0.5,1,0],[0.28,0.99,0]];verticalLabelPosition=bottom;align=center;verticalAlign=top;shape=mxgraph.kubernetes.icon;prIcon=api;fontFamily=Comic Sans MS;" parent="1" vertex="1">
          <mxGeometry x="380" y="800" width="51.13" height="49.06" as="geometry" />
        </mxCell>
        <mxCell id="yGBrbMYSdcOdV5CkmFFq-47" value="Offline mode" style="edgeStyle=orthogonalEdgeStyle;rounded=0;orthogonalLoop=1;jettySize=auto;html=1;entryX=0.005;entryY=0.63;entryDx=0;entryDy=0;entryPerimeter=0;fontFamily=Comic Sans MS;startArrow=classic;startFill=1;" parent="1" source="yGBrbMYSdcOdV5CkmFFq-44" target="yGBrbMYSdcOdV5CkmFFq-45" edge="1">
          <mxGeometry relative="1" as="geometry" />
        </mxCell>
        <mxCell id="yGBrbMYSdcOdV5CkmFFq-48" style="edgeStyle=orthogonalEdgeStyle;rounded=0;orthogonalLoop=1;jettySize=auto;html=1;entryX=0;entryY=0.5;entryDx=0;entryDy=0;entryPerimeter=0;fontFamily=Comic Sans MS;" parent="1" source="DhWCyM13J9A1nExANPJX-65" target="DhWCyM13J9A1nExANPJX-44" edge="1">
          <mxGeometry relative="1" as="geometry" />
        </mxCell>
        <mxCell id="yGBrbMYSdcOdV5CkmFFq-49" value="Task Queue" style="rounded=0;whiteSpace=wrap;html=1;verticalAlign=top;fillColor=none;labelPosition=center;verticalLabelPosition=bottom;align=center;fontFamily=Comic Sans MS;" parent="1" vertex="1">
          <mxGeometry x="514.5699999999999" y="691.53" width="136.87" height="50" as="geometry" />
        </mxCell>
        <mxCell id="yGBrbMYSdcOdV5CkmFFq-50" value="" style="sketch=0;aspect=fixed;pointerEvents=1;shadow=0;dashed=0;html=1;strokeColor=none;labelPosition=center;verticalLabelPosition=bottom;verticalAlign=top;align=center;shape=mxgraph.azure.startup_task;fillColor=#0078D7;fontFamily=Comic Sans MS;" parent="1" vertex="1">
          <mxGeometry x="518.7" y="696.87" width="37.74" height="39.32" as="geometry" />
        </mxCell>
        <mxCell id="yGBrbMYSdcOdV5CkmFFq-51" value="" style="sketch=0;aspect=fixed;pointerEvents=1;shadow=0;dashed=0;html=1;strokeColor=none;labelPosition=center;verticalLabelPosition=bottom;verticalAlign=top;align=center;shape=mxgraph.azure.startup_task;fillColor=#0078D7;fontFamily=Comic Sans MS;" parent="1" vertex="1">
          <mxGeometry x="563.6199999999999" y="696.87" width="37.74" height="39.32" as="geometry" />
        </mxCell>
        <mxCell id="yGBrbMYSdcOdV5CkmFFq-52" value="" style="sketch=0;aspect=fixed;pointerEvents=1;shadow=0;dashed=0;html=1;strokeColor=none;labelPosition=center;verticalLabelPosition=bottom;verticalAlign=top;align=center;shape=mxgraph.azure.startup_task;fillColor=#0078D7;fontFamily=Comic Sans MS;" parent="1" vertex="1">
          <mxGeometry x="608.71" y="696.87" width="37.74" height="39.32" as="geometry" />
        </mxCell>
        <mxCell id="yGBrbMYSdcOdV5CkmFFq-54" value="Task Handler" style="verticalLabelPosition=bottom;html=1;verticalAlign=top;align=center;strokeColor=none;fillColor=#00BEF2;shape=mxgraph.azure.worker_role;fontFamily=Comic Sans MS;" parent="1" vertex="1">
          <mxGeometry x="558.01" y="805.06" width="50" height="40" as="geometry" />
        </mxCell>
        <mxCell id="yGBrbMYSdcOdV5CkmFFq-69" style="rounded=0;orthogonalLoop=1;jettySize=auto;html=1;entryX=0.5;entryY=0;entryDx=0;entryDy=0;fontFamily=Comic Sans MS;" parent="1" source="yGBrbMYSdcOdV5CkmFFq-55" target="yGBrbMYSdcOdV5CkmFFq-63" edge="1">
          <mxGeometry relative="1" as="geometry" />
        </mxCell>
        <mxCell id="yGBrbMYSdcOdV5CkmFFq-55" value="Process" style="verticalLabelPosition=bottom;html=1;verticalAlign=top;align=center;strokeColor=none;fillColor=#00BEF2;shape=mxgraph.azure.worker_role;fontFamily=Comic Sans MS;" parent="1" vertex="1">
          <mxGeometry x="666.13" y="907.53" width="50" height="40" as="geometry" />
        </mxCell>
        <mxCell id="yGBrbMYSdcOdV5CkmFFq-68" style="edgeStyle=orthogonalEdgeStyle;rounded=0;orthogonalLoop=1;jettySize=auto;html=1;entryX=0.5;entryY=0;entryDx=0;entryDy=0;fontFamily=Comic Sans MS;" parent="1" source="yGBrbMYSdcOdV5CkmFFq-56" target="yGBrbMYSdcOdV5CkmFFq-63" edge="1">
          <mxGeometry relative="1" as="geometry" />
        </mxCell>
        <mxCell id="yGBrbMYSdcOdV5CkmFFq-56" value="Process" style="verticalLabelPosition=bottom;html=1;verticalAlign=top;align=center;strokeColor=none;fillColor=#00BEF2;shape=mxgraph.azure.worker_role;fontFamily=Comic Sans MS;" parent="1" vertex="1">
          <mxGeometry x="558.01" y="907.53" width="50" height="40" as="geometry" />
        </mxCell>
        <mxCell id="yGBrbMYSdcOdV5CkmFFq-67" style="rounded=0;orthogonalLoop=1;jettySize=auto;html=1;exitX=0.5;exitY=1;exitDx=0;exitDy=0;exitPerimeter=0;entryX=0.5;entryY=0;entryDx=0;entryDy=0;fontFamily=Comic Sans MS;" parent="1" source="yGBrbMYSdcOdV5CkmFFq-57" target="yGBrbMYSdcOdV5CkmFFq-63" edge="1">
          <mxGeometry relative="1" as="geometry" />
        </mxCell>
        <mxCell id="yGBrbMYSdcOdV5CkmFFq-57" value="Process" style="verticalLabelPosition=bottom;html=1;verticalAlign=top;align=center;strokeColor=none;fillColor=#00BEF2;shape=mxgraph.azure.worker_role;fontFamily=Comic Sans MS;" parent="1" vertex="1">
          <mxGeometry x="446.13" y="907.53" width="50" height="40" as="geometry" />
        </mxCell>
        <mxCell id="yGBrbMYSdcOdV5CkmFFq-58" style="edgeStyle=orthogonalEdgeStyle;rounded=0;orthogonalLoop=1;jettySize=auto;html=1;exitX=0.5;exitY=1;exitDx=0;exitDy=0;entryX=0.5;entryY=0;entryDx=0;entryDy=0;entryPerimeter=0;startArrow=classic;startFill=1;fontFamily=Comic Sans MS;" parent="1" source="yGBrbMYSdcOdV5CkmFFq-49" target="yGBrbMYSdcOdV5CkmFFq-54" edge="1">
          <mxGeometry relative="1" as="geometry" />
        </mxCell>
        <mxCell id="yGBrbMYSdcOdV5CkmFFq-59" style="rounded=0;orthogonalLoop=1;jettySize=auto;html=1;exitX=0.5;exitY=1;exitDx=0;exitDy=0;exitPerimeter=0;entryX=0.5;entryY=0;entryDx=0;entryDy=0;entryPerimeter=0;fontFamily=Comic Sans MS;" parent="1" source="yGBrbMYSdcOdV5CkmFFq-54" target="yGBrbMYSdcOdV5CkmFFq-57" edge="1">
          <mxGeometry relative="1" as="geometry" />
        </mxCell>
        <mxCell id="yGBrbMYSdcOdV5CkmFFq-60" style="rounded=0;orthogonalLoop=1;jettySize=auto;html=1;exitX=0.5;exitY=1;exitDx=0;exitDy=0;exitPerimeter=0;entryX=0.5;entryY=0;entryDx=0;entryDy=0;entryPerimeter=0;fontFamily=Comic Sans MS;" parent="1" source="yGBrbMYSdcOdV5CkmFFq-54" target="yGBrbMYSdcOdV5CkmFFq-56" edge="1">
          <mxGeometry relative="1" as="geometry" />
        </mxCell>
        <mxCell id="yGBrbMYSdcOdV5CkmFFq-61" style="rounded=0;orthogonalLoop=1;jettySize=auto;html=1;exitX=0.5;exitY=1;exitDx=0;exitDy=0;exitPerimeter=0;entryX=0.5;entryY=0;entryDx=0;entryDy=0;entryPerimeter=0;fontFamily=Comic Sans MS;" parent="1" source="yGBrbMYSdcOdV5CkmFFq-54" target="yGBrbMYSdcOdV5CkmFFq-55" edge="1">
          <mxGeometry relative="1" as="geometry" />
        </mxCell>
        <mxCell id="yGBrbMYSdcOdV5CkmFFq-62" style="edgeStyle=orthogonalEdgeStyle;rounded=0;orthogonalLoop=1;jettySize=auto;html=1;entryX=0;entryY=0.5;entryDx=0;entryDy=0;entryPerimeter=0;fontFamily=Comic Sans MS;" parent="1" source="yGBrbMYSdcOdV5CkmFFq-45" target="yGBrbMYSdcOdV5CkmFFq-54" edge="1">
          <mxGeometry relative="1" as="geometry" />
        </mxCell>
        <mxCell id="yGBrbMYSdcOdV5CkmFFq-63" value="Result Cache" style="rounded=0;whiteSpace=wrap;html=1;verticalAlign=top;fillColor=none;labelPosition=center;verticalLabelPosition=bottom;align=center;fontFamily=Comic Sans MS;" parent="1" vertex="1">
          <mxGeometry x="518" y="1020" width="130" height="50" as="geometry" />
        </mxCell>
        <mxCell id="yGBrbMYSdcOdV5CkmFFq-64" value="" style="image;aspect=fixed;html=1;points=[];align=center;fontSize=12;image=img/lib/azure2/general/File.svg;fontFamily=Comic Sans MS;" parent="1" vertex="1">
          <mxGeometry x="525.18" y="1025.5" width="31.65" height="39" as="geometry" />
        </mxCell>
        <mxCell id="yGBrbMYSdcOdV5CkmFFq-65" value="" style="image;aspect=fixed;html=1;points=[];align=center;fontSize=12;image=img/lib/azure2/general/File.svg;fontFamily=Comic Sans MS;" parent="1" vertex="1">
          <mxGeometry x="566.2299999999999" y="1025.5" width="31.65" height="39" as="geometry" />
        </mxCell>
        <mxCell id="yGBrbMYSdcOdV5CkmFFq-66" value="" style="image;aspect=fixed;html=1;points=[];align=center;fontSize=12;image=img/lib/azure2/general/File.svg;fontFamily=Comic Sans MS;" parent="1" vertex="1">
          <mxGeometry x="607.18" y="1025.5" width="31.65" height="39" as="geometry" />
        </mxCell>
        <mxCell id="X7XzgHdYmhGw-9WivJzp-3" style="edgeStyle=orthogonalEdgeStyle;rounded=0;orthogonalLoop=1;jettySize=auto;html=1;exitX=0.995;exitY=0.63;exitDx=0;exitDy=0;exitPerimeter=0;fontFamily=Comic Sans MS;" parent="1" source="X7XzgHdYmhGw-9WivJzp-1" target="MhcaZoFoSHZdR4m9wgJC-86" edge="1">
          <mxGeometry relative="1" as="geometry" />
        </mxCell>
        <mxCell id="X7XzgHdYmhGw-9WivJzp-1" value="User" style="sketch=0;html=1;dashed=0;whitespace=wrap;fillColor=#2875E2;strokeColor=#ffffff;points=[[0.005,0.63,0],[0.1,0.2,0],[0.9,0.2,0],[0.5,0,0],[0.995,0.63,0],[0.72,0.99,0],[0.5,1,0],[0.28,0.99,0]];verticalLabelPosition=bottom;align=center;verticalAlign=top;shape=mxgraph.kubernetes.icon;prIcon=user;fontFamily=Comic Sans MS;" parent="1" vertex="1">
          <mxGeometry x="100" y="289.06" width="50" height="48" as="geometry" />
        </mxCell>
        <mxCell id="X7XzgHdYmhGw-9WivJzp-4" value="User" style="sketch=0;html=1;dashed=0;whitespace=wrap;fillColor=#2875E2;strokeColor=#ffffff;points=[[0.005,0.63,0],[0.1,0.2,0],[0.9,0.2,0],[0.5,0,0],[0.995,0.63,0],[0.72,0.99,0],[0.5,1,0],[0.28,0.99,0]];verticalLabelPosition=bottom;align=center;verticalAlign=top;shape=mxgraph.kubernetes.icon;prIcon=user;fontFamily=Comic Sans MS;" parent="1" vertex="1">
          <mxGeometry x="100" y="431" width="50" height="48" as="geometry" />
        </mxCell>
        <mxCell id="X7XzgHdYmhGw-9WivJzp-6" value="User" style="sketch=0;html=1;dashed=0;whitespace=wrap;fillColor=#2875E2;strokeColor=#ffffff;points=[[0.005,0.63,0],[0.1,0.2,0],[0.9,0.2,0],[0.5,0,0],[0.995,0.63,0],[0.72,0.99,0],[0.5,1,0],[0.28,0.99,0]];verticalLabelPosition=bottom;align=center;verticalAlign=top;shape=mxgraph.kubernetes.icon;prIcon=user;fontFamily=Comic Sans MS;" parent="1" vertex="1">
          <mxGeometry x="100" y="575.5" width="50" height="48" as="geometry" />
        </mxCell>
        <mxCell id="X7XzgHdYmhGw-9WivJzp-7" value="User" style="sketch=0;html=1;dashed=0;whitespace=wrap;fillColor=#2875E2;strokeColor=#ffffff;points=[[0.005,0.63,0],[0.1,0.2,0],[0.9,0.2,0],[0.5,0,0],[0.995,0.63,0],[0.72,0.99,0],[0.5,1,0],[0.28,0.99,0]];verticalLabelPosition=bottom;align=center;verticalAlign=top;shape=mxgraph.kubernetes.icon;prIcon=user;fontFamily=Comic Sans MS;" parent="1" vertex="1">
          <mxGeometry x="100" y="800.5" width="50" height="48" as="geometry" />
        </mxCell>
        <mxCell id="X7XzgHdYmhGw-9WivJzp-8" style="edgeStyle=orthogonalEdgeStyle;rounded=0;orthogonalLoop=1;jettySize=auto;html=1;exitX=0.995;exitY=0.63;exitDx=0;exitDy=0;exitPerimeter=0;entryX=0;entryY=0.5;entryDx=0;entryDy=0;entryPerimeter=0;fontFamily=Comic Sans MS;" parent="1" source="X7XzgHdYmhGw-9WivJzp-4" target="yGBrbMYSdcOdV5CkmFFq-27" edge="1">
          <mxGeometry relative="1" as="geometry" />
        </mxCell>
        <mxCell id="X7XzgHdYmhGw-9WivJzp-9" style="edgeStyle=orthogonalEdgeStyle;rounded=0;orthogonalLoop=1;jettySize=auto;html=1;exitX=0.995;exitY=0.63;exitDx=0;exitDy=0;exitPerimeter=0;entryX=0;entryY=0.5;entryDx=0;entryDy=0;entryPerimeter=0;fontFamily=Comic Sans MS;" parent="1" source="X7XzgHdYmhGw-9WivJzp-6" target="yGBrbMYSdcOdV5CkmFFq-31" edge="1">
          <mxGeometry relative="1" as="geometry" />
        </mxCell>
        <mxCell id="X7XzgHdYmhGw-9WivJzp-11" style="edgeStyle=orthogonalEdgeStyle;rounded=0;orthogonalLoop=1;jettySize=auto;html=1;exitX=0.995;exitY=0.63;exitDx=0;exitDy=0;exitPerimeter=0;entryX=0;entryY=0.5;entryDx=0;entryDy=0;entryPerimeter=0;fontFamily=Comic Sans MS;" parent="1" source="X7XzgHdYmhGw-9WivJzp-7" target="yGBrbMYSdcOdV5CkmFFq-44" edge="1">
          <mxGeometry relative="1" as="geometry" />
        </mxCell>
        <mxCell id="ezjrpOh8rxdaCEZ-qCzv-8" value="Result Cache (User-specific)" style="rounded=0;whiteSpace=wrap;html=1;verticalAlign=top;fillColor=none;labelPosition=center;verticalLabelPosition=bottom;align=center;fontFamily=Comic Sans MS;" parent="1" vertex="1">
          <mxGeometry x="942.49" y="489" width="90" height="60" as="geometry" />
        </mxCell>
        <mxCell id="ezjrpOh8rxdaCEZ-qCzv-9" value="" style="image;aspect=fixed;html=1;points=[];align=center;fontSize=12;image=img/lib/azure2/general/File.svg;fontFamily=Comic Sans MS;" parent="1" vertex="1">
          <mxGeometry x="951.7499999999999" y="500.5" width="31.65" height="39" as="geometry" />
        </mxCell>
        <mxCell id="ezjrpOh8rxdaCEZ-qCzv-10" value="" style="image;aspect=fixed;html=1;points=[];align=center;fontSize=12;image=img/lib/azure2/general/File.svg;fontFamily=Comic Sans MS;" parent="1" vertex="1">
          <mxGeometry x="991.5799999999999" y="500.5" width="31.65" height="39" as="geometry" />
        </mxCell>
        <mxCell id="ezjrpOh8rxdaCEZ-qCzv-11" value="Result Cache (User-specific)" style="rounded=0;whiteSpace=wrap;html=1;verticalAlign=top;fillColor=none;labelPosition=center;verticalLabelPosition=bottom;align=center;fontFamily=Comic Sans MS;" parent="1" vertex="1">
          <mxGeometry x="1051" y="490" width="90" height="60" as="geometry" />
        </mxCell>
        <mxCell id="ezjrpOh8rxdaCEZ-qCzv-12" value="" style="image;aspect=fixed;html=1;points=[];align=center;fontSize=12;image=img/lib/azure2/general/File.svg;fontFamily=Comic Sans MS;" parent="1" vertex="1">
          <mxGeometry x="1060.2599999999998" y="501.5" width="31.65" height="39" as="geometry" />
        </mxCell>
        <mxCell id="ezjrpOh8rxdaCEZ-qCzv-13" value="" style="image;aspect=fixed;html=1;points=[];align=center;fontSize=12;image=img/lib/azure2/general/File.svg;fontFamily=Comic Sans MS;" parent="1" vertex="1">
          <mxGeometry x="1100.09" y="501.5" width="31.65" height="39" as="geometry" />
        </mxCell>
      </root>
    </mxGraphModel>
  </diagram>
</mxfile>
